<svg width="147" height="48" viewBox="0 0 147 48" fill="none" xmlns="http://www.w3.org/2000/svg">
<g filter="url(#filter0_d_80_2949)">
<rect x="8" y="4" width="131" height="32" rx="4" fill="#FBAB34"/>
<path d="M39.5801 23.9268V25H34.6035V23.9268H39.5801ZM34.8633 15.0469V25H33.5439V15.0469H34.8633ZM40.5645 21.3838V21.2266C40.5645 20.6934 40.6419 20.1989 40.7969 19.7432C40.9518 19.2829 41.1751 18.8841 41.4668 18.5469C41.7585 18.2051 42.1117 17.9408 42.5264 17.7539C42.9411 17.5625 43.4059 17.4668 43.9209 17.4668C44.4404 17.4668 44.9076 17.5625 45.3223 17.7539C45.7415 17.9408 46.097 18.2051 46.3887 18.5469C46.6849 18.8841 46.9105 19.2829 47.0654 19.7432C47.2204 20.1989 47.2979 20.6934 47.2979 21.2266V21.3838C47.2979 21.917 47.2204 22.4115 47.0654 22.8672C46.9105 23.3229 46.6849 23.7217 46.3887 24.0635C46.097 24.4007 45.7438 24.665 45.3291 24.8564C44.9189 25.0433 44.4541 25.1367 43.9346 25.1367C43.415 25.1367 42.9479 25.0433 42.5332 24.8564C42.1185 24.665 41.763 24.4007 41.4668 24.0635C41.1751 23.7217 40.9518 23.3229 40.7969 22.8672C40.6419 22.4115 40.5645 21.917 40.5645 21.3838ZM41.8291 21.2266V21.3838C41.8291 21.7529 41.8724 22.1016 41.959 22.4297C42.0456 22.7533 42.1755 23.0404 42.3486 23.291C42.5264 23.5417 42.7474 23.7399 43.0117 23.8857C43.276 24.027 43.5837 24.0977 43.9346 24.0977C44.2809 24.0977 44.584 24.027 44.8438 23.8857C45.1081 23.7399 45.3268 23.5417 45.5 23.291C45.6732 23.0404 45.8031 22.7533 45.8896 22.4297C45.9808 22.1016 46.0264 21.7529 46.0264 21.3838V21.2266C46.0264 20.862 45.9808 20.5179 45.8896 20.1943C45.8031 19.8662 45.6709 19.5768 45.4932 19.3262C45.32 19.071 45.1012 18.8704 44.8369 18.7246C44.5771 18.5788 44.2718 18.5059 43.9209 18.5059C43.5745 18.5059 43.2692 18.5788 43.0049 18.7246C42.7451 18.8704 42.5264 19.071 42.3486 19.3262C42.1755 19.5768 42.0456 19.8662 41.959 20.1943C41.8724 20.5179 41.8291 20.862 41.8291 21.2266ZM50.1484 18.7656V25H48.8838V17.6035H50.1143L50.1484 18.7656ZM52.459 17.5625L52.4521 18.7383C52.3473 18.7155 52.2471 18.7018 52.1514 18.6973C52.0602 18.6882 51.9554 18.6836 51.8369 18.6836C51.5452 18.6836 51.2878 18.7292 51.0645 18.8203C50.8411 18.9115 50.652 19.0391 50.4971 19.2031C50.3421 19.3672 50.2191 19.5632 50.1279 19.791C50.0413 20.0143 49.9844 20.2604 49.957 20.5293L49.6016 20.7344C49.6016 20.2878 49.6449 19.8685 49.7314 19.4766C49.8226 19.0846 49.9616 18.7383 50.1484 18.4375C50.3353 18.1322 50.5723 17.8952 50.8594 17.7266C51.151 17.5534 51.4974 17.4668 51.8984 17.4668C51.9896 17.4668 52.0944 17.4782 52.2129 17.501C52.3314 17.5192 52.4134 17.5397 52.459 17.5625ZM56.5605 25.1367C56.0456 25.1367 55.5785 25.0501 55.1592 24.877C54.7445 24.6992 54.3867 24.4508 54.0859 24.1318C53.7897 23.8128 53.5618 23.4346 53.4023 22.9971C53.2428 22.5596 53.1631 22.0811 53.1631 21.5615V21.2744C53.1631 20.6729 53.252 20.1374 53.4297 19.668C53.6074 19.194 53.849 18.793 54.1543 18.4648C54.4596 18.1367 54.806 17.8883 55.1934 17.7197C55.5807 17.5511 55.9818 17.4668 56.3965 17.4668C56.9251 17.4668 57.3809 17.5579 57.7637 17.7402C58.151 17.9225 58.4678 18.1777 58.7139 18.5059C58.96 18.8294 59.1423 19.2122 59.2607 19.6543C59.3792 20.0918 59.4385 20.5703 59.4385 21.0898V21.6572H53.915V20.625H58.1738V20.5293C58.1556 20.2012 58.0872 19.8822 57.9688 19.5723C57.8548 19.2624 57.6725 19.0072 57.4219 18.8066C57.1712 18.6061 56.8294 18.5059 56.3965 18.5059C56.1094 18.5059 55.8451 18.5674 55.6035 18.6904C55.362 18.8089 55.1546 18.9867 54.9814 19.2236C54.8083 19.4606 54.6738 19.75 54.5781 20.0918C54.4824 20.4336 54.4346 20.8278 54.4346 21.2744V21.5615C54.4346 21.9124 54.4824 22.2428 54.5781 22.5527C54.6784 22.8581 54.8219 23.127 55.0088 23.3594C55.2002 23.5918 55.4303 23.7741 55.6992 23.9062C55.9727 24.0384 56.2826 24.1045 56.6289 24.1045C57.0755 24.1045 57.4538 24.0133 57.7637 23.8311C58.0736 23.6488 58.3447 23.4049 58.5771 23.0996L59.3428 23.708C59.1833 23.9495 58.9805 24.1797 58.7344 24.3984C58.4883 24.6172 58.1852 24.7949 57.8252 24.9316C57.4697 25.0684 57.0482 25.1367 56.5605 25.1367ZM62.1729 19.0732V25H60.9014V17.6035H62.1045L62.1729 19.0732ZM61.9131 21.0215L61.3252 21.001C61.3298 20.4951 61.3958 20.028 61.5234 19.5996C61.651 19.1667 61.8402 18.7907 62.0908 18.4717C62.3415 18.1527 62.6536 17.9066 63.0273 17.7334C63.401 17.5557 63.834 17.4668 64.3262 17.4668C64.6725 17.4668 64.9915 17.5169 65.2832 17.6172C65.5749 17.7129 65.8278 17.8656 66.042 18.0752C66.2562 18.2848 66.4225 18.5537 66.541 18.8818C66.6595 19.21 66.7188 19.6064 66.7188 20.0713V25H65.4541V20.1328C65.4541 19.7454 65.388 19.4355 65.2559 19.2031C65.1283 18.9707 64.946 18.8021 64.709 18.6973C64.472 18.5879 64.194 18.5332 63.875 18.5332C63.5013 18.5332 63.1891 18.5993 62.9385 18.7314C62.6878 18.8636 62.4873 19.0459 62.3369 19.2783C62.1865 19.5107 62.0771 19.7773 62.0088 20.0781C61.945 20.3743 61.9131 20.6888 61.9131 21.0215ZM66.7051 20.3242L65.8574 20.584C65.862 20.1784 65.9281 19.7887 66.0557 19.415C66.1878 19.0413 66.377 18.7087 66.623 18.417C66.8737 18.1253 67.1813 17.8952 67.5459 17.7266C67.9105 17.5534 68.3275 17.4668 68.7969 17.4668C69.1934 17.4668 69.5443 17.5192 69.8496 17.624C70.1595 17.7288 70.4193 17.8906 70.6289 18.1094C70.8431 18.3236 71.0049 18.5993 71.1143 18.9365C71.2236 19.2738 71.2783 19.6748 71.2783 20.1396V25H70.0068V20.126C70.0068 19.7113 69.9408 19.39 69.8086 19.1621C69.681 18.9297 69.4987 18.7679 69.2617 18.6768C69.0293 18.5811 68.7513 18.5332 68.4277 18.5332C68.1497 18.5332 67.9036 18.5811 67.6895 18.6768C67.4753 18.7725 67.2952 18.9046 67.1494 19.0732C67.0036 19.2373 66.8919 19.4264 66.8145 19.6406C66.7415 19.8548 66.7051 20.0827 66.7051 20.3242ZM78.2715 15.0469V25H76.9521V15.0469H78.2715ZM81.7441 19.0254V27.8438H80.4727V17.6035H81.6348L81.7441 19.0254ZM86.7275 21.2402V21.3838C86.7275 21.9215 86.6637 22.4206 86.5361 22.8809C86.4085 23.3366 86.2217 23.7331 85.9756 24.0703C85.734 24.4076 85.4355 24.6696 85.0801 24.8564C84.7246 25.0433 84.3167 25.1367 83.8564 25.1367C83.387 25.1367 82.9723 25.0592 82.6123 24.9043C82.2523 24.7493 81.9469 24.5238 81.6963 24.2275C81.4456 23.9313 81.2451 23.5758 81.0947 23.1611C80.9489 22.7464 80.8486 22.2793 80.7939 21.7598V20.9941C80.8486 20.4473 80.9512 19.9574 81.1016 19.5244C81.252 19.0915 81.4502 18.7223 81.6963 18.417C81.9469 18.1071 82.25 17.8724 82.6055 17.7129C82.9609 17.5488 83.3711 17.4668 83.8359 17.4668C84.3008 17.4668 84.7132 17.5579 85.0732 17.7402C85.4333 17.918 85.7363 18.1732 85.9824 18.5059C86.2285 18.8385 86.4131 19.2373 86.5361 19.7021C86.6637 20.1624 86.7275 20.6751 86.7275 21.2402ZM85.4561 21.3838V21.2402C85.4561 20.8711 85.4173 20.5247 85.3398 20.2012C85.2624 19.873 85.1416 19.5859 84.9775 19.3398C84.818 19.0892 84.613 18.8932 84.3623 18.752C84.1117 18.6061 83.8132 18.5332 83.4668 18.5332C83.1478 18.5332 82.8698 18.5879 82.6328 18.6973C82.4004 18.8066 82.2021 18.9548 82.0381 19.1416C81.874 19.3239 81.7396 19.5335 81.6348 19.7705C81.5345 20.0029 81.4593 20.2445 81.4092 20.4951V22.2656C81.5003 22.5846 81.6279 22.8854 81.792 23.168C81.9561 23.446 82.1748 23.6715 82.4482 23.8447C82.7217 24.0133 83.0658 24.0977 83.4805 24.0977C83.8223 24.0977 84.1162 24.027 84.3623 23.8857C84.613 23.7399 84.818 23.5417 84.9775 23.291C85.1416 23.0404 85.2624 22.7533 85.3398 22.4297C85.4173 22.1016 85.4561 21.7529 85.4561 21.3838ZM92.6475 23.0381C92.6475 22.8558 92.6064 22.6872 92.5244 22.5322C92.4469 22.3727 92.2852 22.2292 92.0391 22.1016C91.7975 21.9694 91.4329 21.8555 90.9453 21.7598C90.5352 21.6732 90.1637 21.5706 89.8311 21.4521C89.5029 21.3337 89.2227 21.1901 88.9902 21.0215C88.7624 20.8529 88.5869 20.6546 88.4639 20.4268C88.3408 20.1989 88.2793 19.9323 88.2793 19.627C88.2793 19.3353 88.3431 19.0596 88.4707 18.7998C88.6029 18.54 88.7874 18.3099 89.0244 18.1094C89.266 17.9089 89.5553 17.7516 89.8926 17.6377C90.2298 17.5238 90.6058 17.4668 91.0205 17.4668C91.613 17.4668 92.1188 17.5716 92.5381 17.7812C92.9574 17.9909 93.2786 18.2712 93.502 18.6221C93.7253 18.9684 93.8369 19.3535 93.8369 19.7773H92.5723C92.5723 19.5723 92.5107 19.374 92.3877 19.1826C92.2692 18.9867 92.0938 18.8249 91.8613 18.6973C91.6335 18.5697 91.3532 18.5059 91.0205 18.5059C90.6696 18.5059 90.3848 18.5605 90.166 18.6699C89.9518 18.7747 89.7946 18.9092 89.6943 19.0732C89.5986 19.2373 89.5508 19.4105 89.5508 19.5928C89.5508 19.7295 89.5736 19.8525 89.6191 19.9619C89.6693 20.0667 89.7559 20.1647 89.8789 20.2559C90.002 20.3424 90.1751 20.4245 90.3984 20.502C90.6217 20.5794 90.9066 20.6569 91.2529 20.7344C91.859 20.8711 92.3581 21.0352 92.75 21.2266C93.1419 21.418 93.4336 21.6527 93.625 21.9307C93.8164 22.2087 93.9121 22.5459 93.9121 22.9424C93.9121 23.266 93.8438 23.5622 93.707 23.8311C93.5749 24.0999 93.3812 24.3324 93.126 24.5283C92.8753 24.7197 92.5745 24.8701 92.2236 24.9795C91.8773 25.0843 91.4876 25.1367 91.0547 25.1367C90.403 25.1367 89.8516 25.0205 89.4004 24.7881C88.9492 24.5557 88.6074 24.2549 88.375 23.8857C88.1426 23.5166 88.0264 23.127 88.0264 22.7168H89.2979C89.3161 23.0632 89.4163 23.3389 89.5986 23.5439C89.7809 23.7445 90.0042 23.888 90.2686 23.9746C90.5329 24.0566 90.7949 24.0977 91.0547 24.0977C91.401 24.0977 91.6904 24.0521 91.9229 23.9609C92.1598 23.8698 92.3398 23.7445 92.4629 23.585C92.5859 23.4255 92.6475 23.2432 92.6475 23.0381ZM100.099 23.291V17.6035H101.37V25H100.16L100.099 23.291ZM100.338 21.7324L100.864 21.7188C100.864 22.2109 100.812 22.6667 100.707 23.0859C100.607 23.5007 100.443 23.8607 100.215 24.166C99.987 24.4714 99.6885 24.7106 99.3193 24.8838C98.9502 25.0524 98.5013 25.1367 97.9727 25.1367C97.6126 25.1367 97.2822 25.0843 96.9814 24.9795C96.6852 24.8747 96.43 24.7129 96.2158 24.4941C96.0016 24.2754 95.8353 23.9906 95.7168 23.6396C95.6029 23.2887 95.5459 22.8672 95.5459 22.375V17.6035H96.8105V22.3887C96.8105 22.7214 96.847 22.9971 96.9199 23.2158C96.9974 23.43 97.0999 23.6009 97.2275 23.7285C97.3597 23.8516 97.5055 23.9382 97.665 23.9883C97.8291 24.0384 97.9977 24.0635 98.1709 24.0635C98.7087 24.0635 99.1348 23.9609 99.4492 23.7559C99.7637 23.5462 99.9893 23.266 100.126 22.915C100.267 22.5596 100.338 22.1654 100.338 21.7324ZM104.556 19.0732V25H103.284V17.6035H104.487L104.556 19.0732ZM104.296 21.0215L103.708 21.001C103.713 20.4951 103.779 20.028 103.906 19.5996C104.034 19.1667 104.223 18.7907 104.474 18.4717C104.724 18.1527 105.036 17.9066 105.41 17.7334C105.784 17.5557 106.217 17.4668 106.709 17.4668C107.055 17.4668 107.374 17.5169 107.666 17.6172C107.958 17.7129 108.211 17.8656 108.425 18.0752C108.639 18.2848 108.805 18.5537 108.924 18.8818C109.042 19.21 109.102 19.6064 109.102 20.0713V25H107.837V20.1328C107.837 19.7454 107.771 19.4355 107.639 19.2031C107.511 18.9707 107.329 18.8021 107.092 18.6973C106.855 18.5879 106.577 18.5332 106.258 18.5332C105.884 18.5332 105.572 18.5993 105.321 18.7314C105.071 18.8636 104.87 19.0459 104.72 19.2783C104.569 19.5107 104.46 19.7773 104.392 20.0781C104.328 20.3743 104.296 20.6888 104.296 21.0215ZM109.088 20.3242L108.24 20.584C108.245 20.1784 108.311 19.7887 108.438 19.415C108.571 19.0413 108.76 18.7087 109.006 18.417C109.257 18.1253 109.564 17.8952 109.929 17.7266C110.293 17.5534 110.71 17.4668 111.18 17.4668C111.576 17.4668 111.927 17.5192 112.232 17.624C112.542 17.7288 112.802 17.8906 113.012 18.1094C113.226 18.3236 113.388 18.5993 113.497 18.9365C113.606 19.2738 113.661 19.6748 113.661 20.1396V25H112.39V20.126C112.39 19.7113 112.324 19.39 112.191 19.1621C112.064 18.9297 111.882 18.7679 111.645 18.6768C111.412 18.5811 111.134 18.5332 110.811 18.5332C110.533 18.5332 110.286 18.5811 110.072 18.6768C109.858 18.7725 109.678 18.9046 109.532 19.0732C109.386 19.2373 109.275 19.4264 109.197 19.6406C109.124 19.8548 109.088 20.0827 109.088 20.3242Z" fill="white"/>
</g>
<path d="M-3.49691e-07 20L8 12L8 28L-3.49691e-07 20Z" fill="#FBAB34"/>
<defs>
<filter id="filter0_d_80_2949" x="0" y="0" width="147" height="48" filterUnits="userSpaceOnUse" color-interpolation-filters="sRGB">
<feFlood flood-opacity="0" result="BackgroundImageFix"/>
<feColorMatrix in="SourceAlpha" type="matrix" values="0 0 0 0 0 0 0 0 0 0 0 0 0 0 0 0 0 0 127 0" result="hardAlpha"/>
<feOffset dy="4"/>
<feGaussianBlur stdDeviation="4"/>
<feComposite in2="hardAlpha" operator="out"/>
<feColorMatrix type="matrix" values="0 0 0 0 0 0 0 0 0 0 0 0 0 0 0 0 0 0 0.1 0"/>
<feBlend mode="normal" in2="BackgroundImageFix" result="effect1_dropShadow_80_2949"/>
<feBlend mode="normal" in="SourceGraphic" in2="effect1_dropShadow_80_2949" result="shape"/>
</filter>
</defs>
</svg>
