<svg width="116" height="72" viewBox="0 0 116 72" fill="none" xmlns="http://www.w3.org/2000/svg">
<g filter="url(#filter0_d_50_1984)">
<path d="M58 4L66 12L50 12L58 4Z" fill="#FBAB34"/>
<rect x="8" y="12" width="100" height="48" rx="4" fill="#FBAB34"/>
<path d="M36.9521 23.0469V33H35.6533V23.0469H36.9521ZM40.1514 23.0469V24.127H32.4609V23.0469H40.1514ZM42.1816 26.7656V33H40.917V25.6035H42.1475L42.1816 26.7656ZM44.4922 25.5625L44.4854 26.7383C44.3805 26.7155 44.2803 26.7018 44.1846 26.6973C44.0934 26.6882 43.9886 26.6836 43.8701 26.6836C43.5785 26.6836 43.321 26.7292 43.0977 26.8203C42.8743 26.9115 42.6852 27.0391 42.5303 27.2031C42.3753 27.3672 42.2523 27.5632 42.1611 27.791C42.0745 28.0143 42.0176 28.2604 41.9902 28.5293L41.6348 28.7344C41.6348 28.2878 41.6781 27.8685 41.7646 27.4766C41.8558 27.0846 41.9948 26.7383 42.1816 26.4375C42.3685 26.1322 42.6055 25.8952 42.8926 25.7266C43.1842 25.5534 43.5306 25.4668 43.9316 25.4668C44.0228 25.4668 44.1276 25.4782 44.2461 25.501C44.3646 25.5192 44.4466 25.5397 44.4922 25.5625ZM49.749 31.7354V27.9277C49.749 27.6361 49.6898 27.3831 49.5713 27.1689C49.4574 26.9502 49.2842 26.7816 49.0518 26.6631C48.8193 26.5446 48.5322 26.4854 48.1904 26.4854C47.8714 26.4854 47.5911 26.54 47.3496 26.6494C47.1126 26.7588 46.9258 26.9023 46.7891 27.0801C46.6569 27.2578 46.5908 27.4492 46.5908 27.6543H45.3262C45.3262 27.39 45.3945 27.1279 45.5312 26.8682C45.668 26.6084 45.8639 26.3737 46.1191 26.1641C46.3789 25.9499 46.6888 25.7812 47.0488 25.6582C47.4134 25.5306 47.819 25.4668 48.2656 25.4668C48.8034 25.4668 49.2773 25.5579 49.6875 25.7402C50.1022 25.9225 50.4258 26.1982 50.6582 26.5674C50.8952 26.932 51.0137 27.39 51.0137 27.9414V31.3867C51.0137 31.6328 51.0342 31.8949 51.0752 32.1729C51.1208 32.4508 51.1868 32.6901 51.2734 32.8906V33H49.9541C49.8903 32.8542 49.8402 32.6605 49.8037 32.4189C49.7673 32.1729 49.749 31.945 49.749 31.7354ZM49.9678 28.5156L49.9814 29.4043H48.7031C48.3431 29.4043 48.0218 29.4339 47.7393 29.4932C47.4567 29.5479 47.2197 29.6322 47.0283 29.7461C46.8369 29.86 46.6911 30.0036 46.5908 30.1768C46.4906 30.3454 46.4404 30.5436 46.4404 30.7715C46.4404 31.0039 46.4928 31.2158 46.5977 31.4072C46.7025 31.5986 46.8597 31.7513 47.0693 31.8652C47.2835 31.9746 47.5456 32.0293 47.8555 32.0293C48.2428 32.0293 48.5846 31.9473 48.8809 31.7832C49.1771 31.6191 49.4118 31.4186 49.585 31.1816C49.7627 30.9447 49.8584 30.7145 49.8721 30.4912L50.4121 31.0996C50.3802 31.291 50.2936 31.5029 50.1523 31.7354C50.0111 31.9678 49.8219 32.1911 49.585 32.4053C49.3525 32.6149 49.0745 32.7904 48.751 32.9316C48.432 33.0684 48.0719 33.1367 47.6709 33.1367C47.1696 33.1367 46.7298 33.0387 46.3516 32.8428C45.9779 32.6468 45.6862 32.3848 45.4766 32.0566C45.2715 31.724 45.1689 31.3525 45.1689 30.9424C45.1689 30.5459 45.2464 30.1973 45.4014 29.8965C45.5563 29.5911 45.7796 29.3382 46.0713 29.1377C46.363 28.9326 46.7139 28.7777 47.124 28.6729C47.5342 28.568 47.9922 28.5156 48.498 28.5156H49.9678ZM54.2676 27.1826V33H53.0029V25.6035H54.1992L54.2676 27.1826ZM53.9668 29.0215L53.4404 29.001C53.445 28.4951 53.5202 28.028 53.666 27.5996C53.8118 27.1667 54.0169 26.7907 54.2812 26.4717C54.5456 26.1527 54.86 25.9066 55.2246 25.7334C55.5938 25.5557 56.0016 25.4668 56.4482 25.4668C56.8128 25.4668 57.141 25.5169 57.4326 25.6172C57.7243 25.7129 57.9727 25.8678 58.1777 26.082C58.3874 26.2962 58.5469 26.5742 58.6562 26.916C58.7656 27.2533 58.8203 27.6657 58.8203 28.1533V33H57.5488V28.1396C57.5488 27.7523 57.4919 27.4424 57.3779 27.21C57.264 26.973 57.0977 26.8021 56.8789 26.6973C56.6602 26.5879 56.3913 26.5332 56.0723 26.5332C55.7578 26.5332 55.4707 26.5993 55.2109 26.7314C54.9557 26.8636 54.7347 27.0459 54.5479 27.2783C54.3656 27.5107 54.222 27.7773 54.1172 28.0781C54.0169 28.3743 53.9668 28.6888 53.9668 29.0215ZM65.0479 31.0381C65.0479 30.8558 65.0068 30.6872 64.9248 30.5322C64.8473 30.3727 64.6855 30.2292 64.4395 30.1016C64.1979 29.9694 63.8333 29.8555 63.3457 29.7598C62.9355 29.6732 62.5641 29.5706 62.2314 29.4521C61.9033 29.3337 61.623 29.1901 61.3906 29.0215C61.1628 28.8529 60.9873 28.6546 60.8643 28.4268C60.7412 28.1989 60.6797 27.9323 60.6797 27.627C60.6797 27.3353 60.7435 27.0596 60.8711 26.7998C61.0033 26.54 61.1878 26.3099 61.4248 26.1094C61.6663 25.9089 61.9557 25.7516 62.293 25.6377C62.6302 25.5238 63.0062 25.4668 63.4209 25.4668C64.0133 25.4668 64.5192 25.5716 64.9385 25.7812C65.3577 25.9909 65.679 26.2712 65.9023 26.6221C66.1257 26.9684 66.2373 27.3535 66.2373 27.7773H64.9727C64.9727 27.5723 64.9111 27.374 64.7881 27.1826C64.6696 26.9867 64.4941 26.8249 64.2617 26.6973C64.0339 26.5697 63.7536 26.5059 63.4209 26.5059C63.07 26.5059 62.7852 26.5605 62.5664 26.6699C62.3522 26.7747 62.195 26.9092 62.0947 27.0732C61.999 27.2373 61.9512 27.4105 61.9512 27.5928C61.9512 27.7295 61.974 27.8525 62.0195 27.9619C62.0697 28.0667 62.1562 28.1647 62.2793 28.2559C62.4023 28.3424 62.5755 28.4245 62.7988 28.502C63.0221 28.5794 63.307 28.6569 63.6533 28.7344C64.2594 28.8711 64.7585 29.0352 65.1504 29.2266C65.5423 29.418 65.834 29.6527 66.0254 29.9307C66.2168 30.2087 66.3125 30.5459 66.3125 30.9424C66.3125 31.266 66.2441 31.5622 66.1074 31.8311C65.9753 32.0999 65.7816 32.3324 65.5264 32.5283C65.2757 32.7197 64.9749 32.8701 64.624 32.9795C64.2777 33.0843 63.888 33.1367 63.4551 33.1367C62.8034 33.1367 62.252 33.0205 61.8008 32.7881C61.3496 32.5557 61.0078 32.2549 60.7754 31.8857C60.543 31.5166 60.4268 31.127 60.4268 30.7168H61.6982C61.7165 31.0632 61.8167 31.3389 61.999 31.5439C62.1813 31.7445 62.4046 31.888 62.6689 31.9746C62.9333 32.0566 63.1953 32.0977 63.4551 32.0977C63.8014 32.0977 64.0908 32.0521 64.3232 31.9609C64.5602 31.8698 64.7402 31.7445 64.8633 31.585C64.9863 31.4255 65.0479 31.2432 65.0479 31.0381ZM69.8604 33H68.5957V24.8242C68.5957 24.291 68.6914 23.8421 68.8828 23.4775C69.0788 23.1084 69.359 22.8304 69.7236 22.6436C70.0882 22.4521 70.5212 22.3564 71.0225 22.3564C71.1683 22.3564 71.3141 22.3656 71.46 22.3838C71.6104 22.402 71.7562 22.4294 71.8975 22.4658L71.8291 23.498C71.7334 23.4753 71.624 23.4593 71.501 23.4502C71.3825 23.4411 71.264 23.4365 71.1455 23.4365C70.8766 23.4365 70.6442 23.4912 70.4482 23.6006C70.2568 23.7054 70.111 23.8604 70.0107 24.0654C69.9105 24.2705 69.8604 24.5234 69.8604 24.8242V33ZM71.4326 25.6035V26.5742H67.4268V25.6035H71.4326ZM75.7461 33.1367C75.2311 33.1367 74.764 33.0501 74.3447 32.877C73.93 32.6992 73.5723 32.4508 73.2715 32.1318C72.9753 31.8128 72.7474 31.4346 72.5879 30.9971C72.4284 30.5596 72.3486 30.0811 72.3486 29.5615V29.2744C72.3486 28.6729 72.4375 28.1374 72.6152 27.668C72.793 27.194 73.0345 26.793 73.3398 26.4648C73.6452 26.1367 73.9915 25.8883 74.3789 25.7197C74.7663 25.5511 75.1673 25.4668 75.582 25.4668C76.1107 25.4668 76.5664 25.5579 76.9492 25.7402C77.3366 25.9225 77.6533 26.1777 77.8994 26.5059C78.1455 26.8294 78.3278 27.2122 78.4463 27.6543C78.5648 28.0918 78.624 28.5703 78.624 29.0898V29.6572H73.1006V28.625H77.3594V28.5293C77.3411 28.2012 77.2728 27.8822 77.1543 27.5723C77.0404 27.2624 76.8581 27.0072 76.6074 26.8066C76.3568 26.6061 76.015 26.5059 75.582 26.5059C75.2949 26.5059 75.0306 26.5674 74.7891 26.6904C74.5475 26.8089 74.3402 26.9867 74.167 27.2236C73.9938 27.4606 73.8594 27.75 73.7637 28.0918C73.668 28.4336 73.6201 28.8278 73.6201 29.2744V29.5615C73.6201 29.9124 73.668 30.2428 73.7637 30.5527C73.8639 30.8581 74.0075 31.127 74.1943 31.3594C74.3857 31.5918 74.6159 31.7741 74.8848 31.9062C75.1582 32.0384 75.4681 32.1045 75.8145 32.1045C76.2611 32.1045 76.6393 32.0133 76.9492 31.8311C77.2591 31.6488 77.5303 31.4049 77.7627 31.0996L78.5283 31.708C78.3688 31.9495 78.166 32.1797 77.9199 32.3984C77.6738 32.6172 77.3708 32.7949 77.0107 32.9316C76.6553 33.0684 76.2337 33.1367 75.7461 33.1367ZM81.3652 26.7656V33H80.1006V25.6035H81.3311L81.3652 26.7656ZM83.6758 25.5625L83.6689 26.7383C83.5641 26.7155 83.4639 26.7018 83.3682 26.6973C83.277 26.6882 83.1722 26.6836 83.0537 26.6836C82.762 26.6836 82.5046 26.7292 82.2812 26.8203C82.0579 26.9115 81.8688 27.0391 81.7139 27.2031C81.5589 27.3672 81.4359 27.5632 81.3447 27.791C81.2581 28.0143 81.2012 28.2604 81.1738 28.5293L80.8184 28.7344C80.8184 28.2878 80.8617 27.8685 80.9482 27.4766C81.0394 27.0846 81.1784 26.7383 81.3652 26.4375C81.5521 26.1322 81.7891 25.8952 82.0762 25.7266C82.3678 25.5534 82.7142 25.4668 83.1152 25.4668C83.2064 25.4668 83.3112 25.4782 83.4297 25.501C83.5482 25.5192 83.6302 25.5397 83.6758 25.5625ZM44.7109 45.835H46.0234C45.9551 46.4639 45.7751 47.0267 45.4834 47.5234C45.1917 48.0202 44.7793 48.4144 44.2461 48.7061C43.7129 48.9932 43.0475 49.1367 42.25 49.1367C41.6667 49.1367 41.1357 49.0273 40.6572 48.8086C40.1833 48.5898 39.7754 48.2799 39.4336 47.8789C39.0918 47.4733 38.8275 46.988 38.6406 46.4229C38.4583 45.8532 38.3672 45.2197 38.3672 44.5225V43.5312C38.3672 42.834 38.4583 42.2028 38.6406 41.6377C38.8275 41.068 39.0941 40.5804 39.4404 40.1748C39.7913 39.7692 40.2129 39.457 40.7051 39.2383C41.1973 39.0195 41.751 38.9102 42.3662 38.9102C43.1182 38.9102 43.7539 39.0514 44.2734 39.334C44.793 39.6165 45.1963 40.0085 45.4834 40.5098C45.7751 41.0065 45.9551 41.583 46.0234 42.2393H44.7109C44.6471 41.7744 44.5286 41.3757 44.3555 41.043C44.1823 40.7057 43.9362 40.446 43.6172 40.2637C43.2982 40.0814 42.8812 39.9902 42.3662 39.9902C41.9242 39.9902 41.5345 40.0745 41.1973 40.2432C40.8646 40.4118 40.5843 40.651 40.3564 40.9609C40.1331 41.2708 39.9645 41.6423 39.8506 42.0752C39.7367 42.5081 39.6797 42.9889 39.6797 43.5176V44.5225C39.6797 45.0101 39.7298 45.4681 39.8301 45.8965C39.9349 46.3249 40.0921 46.7008 40.3018 47.0244C40.5114 47.348 40.778 47.6032 41.1016 47.79C41.4251 47.9723 41.8079 48.0635 42.25 48.0635C42.8105 48.0635 43.2572 47.9746 43.5898 47.7969C43.9225 47.6191 44.1732 47.3639 44.3418 47.0312C44.515 46.6986 44.638 46.2998 44.7109 45.835ZM48.8945 42.7656V49H47.6299V41.6035H48.8604L48.8945 42.7656ZM51.2051 41.5625L51.1982 42.7383C51.0934 42.7155 50.9932 42.7018 50.8975 42.6973C50.8063 42.6882 50.7015 42.6836 50.583 42.6836C50.2913 42.6836 50.0339 42.7292 49.8105 42.8203C49.5872 42.9115 49.3981 43.0391 49.2432 43.2031C49.0882 43.3672 48.9652 43.5632 48.874 43.791C48.7874 44.0143 48.7305 44.2604 48.7031 44.5293L48.3477 44.7344C48.3477 44.2878 48.391 43.8685 48.4775 43.4766C48.5687 43.0846 48.7077 42.7383 48.8945 42.4375C49.0814 42.1322 49.3184 41.8952 49.6055 41.7266C49.8971 41.5534 50.2435 41.4668 50.6445 41.4668C50.7357 41.4668 50.8405 41.4782 50.959 41.501C51.0775 41.5192 51.1595 41.5397 51.2051 41.5625ZM54.5752 48.2344L56.6328 41.6035H57.9863L55.0195 50.1416C54.9512 50.3239 54.86 50.5199 54.7461 50.7295C54.6367 50.9437 54.4954 51.1465 54.3223 51.3379C54.1491 51.5293 53.9395 51.6842 53.6934 51.8027C53.4518 51.9258 53.1624 51.9873 52.8252 51.9873C52.7249 51.9873 52.5973 51.9736 52.4424 51.9463C52.2874 51.9189 52.1781 51.8962 52.1143 51.8779L52.1074 50.8525C52.1439 50.8571 52.2008 50.8617 52.2783 50.8662C52.3604 50.8753 52.4173 50.8799 52.4492 50.8799C52.7363 50.8799 52.9801 50.8411 53.1807 50.7637C53.3812 50.6908 53.5498 50.5654 53.6865 50.3877C53.8278 50.2145 53.9486 49.9753 54.0488 49.6699L54.5752 48.2344ZM53.0645 41.6035L54.9854 47.3457L55.3135 48.6787L54.4043 49.1436L51.6836 41.6035H53.0645ZM60.3926 43.0254V51.8438H59.1211V41.6035H60.2832L60.3926 43.0254ZM65.376 45.2402V45.3838C65.376 45.9215 65.3122 46.4206 65.1846 46.8809C65.057 47.3366 64.8701 47.7331 64.624 48.0703C64.3825 48.4076 64.084 48.6696 63.7285 48.8564C63.373 49.0433 62.9652 49.1367 62.5049 49.1367C62.0355 49.1367 61.6208 49.0592 61.2607 48.9043C60.9007 48.7493 60.5954 48.5238 60.3447 48.2275C60.0941 47.9313 59.8936 47.5758 59.7432 47.1611C59.5973 46.7464 59.4971 46.2793 59.4424 45.7598V44.9941C59.4971 44.4473 59.5996 43.9574 59.75 43.5244C59.9004 43.0915 60.0986 42.7223 60.3447 42.417C60.5954 42.1071 60.8984 41.8724 61.2539 41.7129C61.6094 41.5488 62.0195 41.4668 62.4844 41.4668C62.9492 41.4668 63.3617 41.5579 63.7217 41.7402C64.0817 41.918 64.3848 42.1732 64.6309 42.5059C64.877 42.8385 65.0615 43.2373 65.1846 43.7021C65.3122 44.1624 65.376 44.6751 65.376 45.2402ZM64.1045 45.3838V45.2402C64.1045 44.8711 64.0658 44.5247 63.9883 44.2012C63.9108 43.873 63.79 43.5859 63.626 43.3398C63.4665 43.0892 63.2614 42.8932 63.0107 42.752C62.7601 42.6061 62.4616 42.5332 62.1152 42.5332C61.7962 42.5332 61.5182 42.5879 61.2812 42.6973C61.0488 42.8066 60.8506 42.9548 60.6865 43.1416C60.5225 43.3239 60.388 43.5335 60.2832 43.7705C60.1829 44.0029 60.1077 44.2445 60.0576 44.4951V46.2656C60.1488 46.5846 60.2764 46.8854 60.4404 47.168C60.6045 47.446 60.8232 47.6715 61.0967 47.8447C61.3701 48.0133 61.7142 48.0977 62.1289 48.0977C62.4707 48.0977 62.7646 48.027 63.0107 47.8857C63.2614 47.7399 63.4665 47.5417 63.626 47.291C63.79 47.0404 63.9108 46.7533 63.9883 46.4297C64.0658 46.1016 64.1045 45.7529 64.1045 45.3838ZM70.0859 41.6035V42.5742H66.0869V41.6035H70.0859ZM67.4404 39.8057H68.7051V47.168C68.7051 47.4186 68.7438 47.6077 68.8213 47.7354C68.8988 47.863 68.999 47.9473 69.1221 47.9883C69.2451 48.0293 69.3773 48.0498 69.5186 48.0498C69.6234 48.0498 69.7327 48.0407 69.8467 48.0225C69.9652 47.9997 70.054 47.9814 70.1133 47.9678L70.1201 49C70.0199 49.0319 69.8877 49.0615 69.7236 49.0889C69.5641 49.1208 69.3704 49.1367 69.1426 49.1367C68.8327 49.1367 68.5479 49.0752 68.2881 48.9521C68.0283 48.8291 67.821 48.624 67.666 48.3369C67.5156 48.0452 67.4404 47.6533 67.4404 47.1611V39.8057ZM71.0977 45.3838V45.2266C71.0977 44.6934 71.1751 44.1989 71.3301 43.7432C71.485 43.2829 71.7083 42.8841 72 42.5469C72.2917 42.2051 72.6449 41.9408 73.0596 41.7539C73.4743 41.5625 73.9391 41.4668 74.4541 41.4668C74.9736 41.4668 75.4408 41.5625 75.8555 41.7539C76.2747 41.9408 76.6302 42.2051 76.9219 42.5469C77.2181 42.8841 77.4437 43.2829 77.5986 43.7432C77.7536 44.1989 77.8311 44.6934 77.8311 45.2266V45.3838C77.8311 45.917 77.7536 46.4115 77.5986 46.8672C77.4437 47.3229 77.2181 47.7217 76.9219 48.0635C76.6302 48.4007 76.277 48.665 75.8623 48.8564C75.4521 49.0433 74.9873 49.1367 74.4678 49.1367C73.9482 49.1367 73.4811 49.0433 73.0664 48.8564C72.6517 48.665 72.2962 48.4007 72 48.0635C71.7083 47.7217 71.485 47.3229 71.3301 46.8672C71.1751 46.4115 71.0977 45.917 71.0977 45.3838ZM72.3623 45.2266V45.3838C72.3623 45.7529 72.4056 46.1016 72.4922 46.4297C72.5788 46.7533 72.7087 47.0404 72.8818 47.291C73.0596 47.5417 73.2806 47.7399 73.5449 47.8857C73.8092 48.027 74.1169 48.0977 74.4678 48.0977C74.8141 48.0977 75.1172 48.027 75.377 47.8857C75.6413 47.7399 75.86 47.5417 76.0332 47.291C76.2064 47.0404 76.3363 46.7533 76.4229 46.4297C76.514 46.1016 76.5596 45.7529 76.5596 45.3838V45.2266C76.5596 44.862 76.514 44.5179 76.4229 44.1943C76.3363 43.8662 76.2041 43.5768 76.0264 43.3262C75.8532 43.071 75.6344 42.8704 75.3701 42.7246C75.1104 42.5788 74.805 42.5059 74.4541 42.5059C74.1077 42.5059 73.8024 42.5788 73.5381 42.7246C73.2783 42.8704 73.0596 43.071 72.8818 43.3262C72.7087 43.5768 72.5788 43.8662 72.4922 44.1943C72.4056 44.5179 72.3623 44.862 72.3623 45.2266Z" fill="white"/>
</g>
<defs>
<filter id="filter0_d_50_1984" x="0" y="0" width="116" height="72" filterUnits="userSpaceOnUse" color-interpolation-filters="sRGB">
<feFlood flood-opacity="0" result="BackgroundImageFix"/>
<feColorMatrix in="SourceAlpha" type="matrix" values="0 0 0 0 0 0 0 0 0 0 0 0 0 0 0 0 0 0 127 0" result="hardAlpha"/>
<feOffset dy="4"/>
<feGaussianBlur stdDeviation="4"/>
<feComposite in2="hardAlpha" operator="out"/>
<feColorMatrix type="matrix" values="0 0 0 0 0 0 0 0 0 0 0 0 0 0 0 0 0 0 0.1 0"/>
<feBlend mode="normal" in2="BackgroundImageFix" result="effect1_dropShadow_50_1984"/>
<feBlend mode="normal" in="SourceGraphic" in2="effect1_dropShadow_50_1984" result="shape"/>
</filter>
</defs>
</svg>
