<svg width="32" height="32" viewBox="0 0 32 32" fill="none" xmlns="http://www.w3.org/2000/svg">
<path d="M28.005 12.665V8.66334C28.005 6.82162 26.512 5.32861 24.6703 5.32861H7.32972C5.488 5.32861 3.995 6.82162 3.995 8.66334V13.3319" stroke="#FBAB34" stroke-width="2" stroke-linecap="round" stroke-linejoin="round"/>
<path d="M28.005 19.3345V23.3361C28.005 25.1779 26.512 26.6709 24.6703 26.6709H14.6661" stroke="#FBAB34" stroke-width="2" stroke-linecap="round" stroke-linejoin="round"/>
<path d="M3.99499 26.6708V18.6675" stroke="#FBAB34" stroke-width="2" stroke-linecap="round" stroke-linejoin="round"/>
<path d="M6.74327 17.3335V18.6674" stroke="#FBAB34" stroke-width="2" stroke-linecap="round" stroke-linejoin="round"/>
<path d="M6.74327 26.6709V28.0048" stroke="#FBAB34" stroke-width="2" stroke-linecap="round" stroke-linejoin="round"/>
<path fill-rule="evenodd" clip-rule="evenodd" d="M3.995 22.6694H8.66361C9.76864 22.6694 10.6644 23.5652 10.6644 24.6703V24.6703C10.6644 25.7753 9.76864 26.6711 8.66361 26.6711H3.995V22.6694Z" stroke="#FBAB34" stroke-width="2" stroke-linecap="round" stroke-linejoin="round"/>
<path fill-rule="evenodd" clip-rule="evenodd" d="M3.995 18.6675H8.19675C9.30178 18.6675 10.1976 19.5633 10.1976 20.6683V20.6683C10.1976 21.7733 9.30178 22.6691 8.19675 22.6691H3.995V18.6675Z" stroke="#FBAB34" stroke-width="2" stroke-linecap="round" stroke-linejoin="round"/>
<path fill-rule="evenodd" clip-rule="evenodd" d="M24.6703 12.665H28.005C28.7417 12.665 29.3389 13.2622 29.3389 13.9989V18.0006C29.3389 18.7373 28.7417 19.3345 28.005 19.3345H24.6703C22.8286 19.3345 21.3356 17.8415 21.3356 15.9998V15.9998C21.3356 14.158 22.8286 12.665 24.6703 12.665V12.665Z" stroke="#FBAB34" stroke-width="2" stroke-linecap="round" stroke-linejoin="round"/>
<path d="M10.6644 11.998H17.3339" stroke="#FBAB34" stroke-width="2" stroke-linecap="round" stroke-linejoin="round"/>
</svg>
